<svg xmlns="http://www.w3.org/2000/svg" xmlns:xlink="http://www.w3.org/1999/xlink" id="Camada_1" x="0px" y="0px" viewBox="0 0 200 68.4" style="enable-background:new 0 0 200 68.4;" xml:space="preserve"><g>&#x9;<path class="st0" d="M29,24.1H14.9v15.3c0,1.2,0.2,2.3,0.6,3.1c0.4,0.8,1,1.5,1.8,1.9c0.8,0.4,1.8,0.6,3.1,0.6h9V41h-8.2   c-0.4,0-0.7-0.1-0.9-0.2c-0.2-0.1-0.4-0.3-0.4-0.5c-0.1-0.2-0.1-0.5-0.1-0.9v-2.9h8.2v-4.1h-8.2v-4.3H29V24.1z"></path>&#x9;<polygon class="st0" points="45.6,41 50.3,32.4 50.3,45.1 55.1,45.1 55.1,24.1 50.4,24.1 43.4,35.9 36.5,24.1 31.8,24.1 31.8,45.1    36.6,45.1 36.6,32.4 41.3,41  "></polygon>&#x9;<path class="st0" d="M58.7,24.1v20.9h7.2c1.3,0,2.5-0.1,3.6-0.3c1.1-0.2,2.1-0.6,2.9-1c0.8-0.5,1.4-1.1,1.9-1.9   C74.8,41,75,40.1,75,39c0-0.7-0.1-1.3-0.3-1.9c-0.2-0.5-0.5-1-0.8-1.4c-0.4-0.4-0.7-0.7-1.2-0.9c-0.4-0.2-0.9-0.4-1.3-0.5   c0.4-0.2,0.8-0.4,1.1-0.6c0.4-0.2,0.7-0.6,1-0.9c0.3-0.4,0.5-0.8,0.7-1.3c0.2-0.5,0.3-1,0.3-1.7c0-1.3-0.4-2.4-1-3.3   c-0.7-0.8-1.7-1.5-3-1.9c-1.3-0.4-2.8-0.6-4.6-0.6H58.7z M63.5,28.2h2.4c0.7,0,1.4,0,1.9,0.2c0.5,0.1,0.9,0.3,1.2,0.6   c0.3,0.3,0.4,0.8,0.4,1.3c0,0.6-0.2,1-0.4,1.3c-0.3,0.3-0.7,0.5-1.2,0.6c-0.5,0.1-1.2,0.2-1.9,0.2h-2.4V28.2z M63.5,36.4H66   c0.7,0,1.4,0.1,2,0.2c0.6,0.1,1.1,0.4,1.4,0.7c0.4,0.3,0.5,0.8,0.5,1.4c0,0.6-0.2,1-0.5,1.4c-0.3,0.3-0.8,0.6-1.4,0.7   c-0.6,0.1-1.3,0.2-2,0.2h-2.5V36.4z"></path>&#x9;<path class="st0" d="M81.9,38.1h2.5l4.1,7H94l-4.9-8c1-0.3,1.8-0.7,2.5-1.2c0.7-0.5,1.2-1.2,1.6-2c0.4-0.8,0.5-1.7,0.5-2.8   c0-1.1-0.2-2.1-0.6-3c-0.4-0.9-1-1.6-1.8-2.2c-0.8-0.6-1.7-1-2.7-1.3c-1-0.3-2.2-0.5-3.5-0.5h-8v20.9h4.8V38.1z M81.9,28.2h2.8   c0.5,0,1,0,1.5,0.1c0.5,0.1,0.9,0.2,1.2,0.4c0.4,0.2,0.6,0.5,0.9,0.9c0.2,0.4,0.3,0.9,0.3,1.5c0,0.6-0.1,1.1-0.3,1.5   c-0.2,0.4-0.5,0.7-0.9,0.9c-0.4,0.2-0.8,0.4-1.2,0.4C85.8,34,85.3,34,84.8,34h-2.8V28.2z"></path>&#x9;<path class="st0" d="M105.6,24.1h-4.3l-8.4,20.9h4.6l1.4-3.6h8.5l1.4,3.6h5.3L105.6,24.1z M103.1,30.3l2.7,7.2h-5.5L103.1,30.3z"></path>&#x9;<path class="st0" d="M119.4,38.2h2.9c1.3,0,2.6-0.1,3.7-0.4c1.1-0.3,2-0.7,2.8-1.3c0.8-0.6,1.4-1.3,1.8-2.2   c0.4-0.9,0.6-1.9,0.6-3.1c0-1.2-0.2-2.2-0.6-3.1c-0.4-0.9-1-1.6-1.8-2.2c-0.8-0.6-1.7-1-2.8-1.3c-1.1-0.3-2.3-0.4-3.7-0.4h-7.7   v20.9h4.8V38.2z M119.4,28.2h2.9c0.5,0,1,0,1.4,0.1c0.5,0.1,0.9,0.2,1.2,0.5c0.4,0.2,0.6,0.5,0.9,0.9c0.2,0.4,0.3,0.9,0.3,1.5   c0,0.6-0.1,1.1-0.3,1.5c-0.2,0.4-0.5,0.7-0.9,0.9c-0.4,0.2-0.8,0.4-1.2,0.5c-0.5,0.1-0.9,0.1-1.4,0.1h-2.9V28.2z"></path>&#x9;<path class="st0" d="M133,24.1v15.3c0,1.2,0.2,2.3,0.6,3.1c0.4,0.8,1,1.5,1.8,1.9c0.8,0.4,1.8,0.6,3.1,0.6h8.5V41h-7.6   c-0.4,0-0.7-0.1-0.9-0.2c-0.2-0.1-0.3-0.3-0.4-0.5c-0.1-0.2-0.1-0.5-0.1-0.9V24.1H133z"></path>&#x9;<path class="st0" d="M157.8,24.1h-4.3L145,45.1h4.6l1.4-3.6h8.5l1.4,3.6h5.3L157.8,24.1z M155.3,30.3l2.7,7.2h-5.5L155.3,30.3z"></path>&#x9;<polygon class="st0" points="185.1,24.1 180.4,24.1 180.4,36.9 170.9,24.1 166.8,24.1 166.8,45.1 171.5,45.1 171.5,32.3 181,45.1    185.1,45.1  "></polygon>&#x9;<rect x="140.5" y="15.8" class="st1" width="5.1" height="21.7"></rect></g></svg>